<?xml version="1.0" standalone="no"?>
<!DOCTYPE svg PUBLIC "-//W3C//DTD SVG 20010904//EN"
 "http://www.w3.org/TR/2001/REC-SVG-20010904/DTD/svg10.dtd">
<svg version="1.0" xmlns="http://www.w3.org/2000/svg"
 width="141.000000pt" height="158.000000pt" viewBox="0 0 141.000000 158.000000"
 preserveAspectRatio="xMidYMid meet">

<g transform="translate(0.000000,158.000000) scale(0.100000,-0.100000)"
fill="#000000" stroke="none">
<path d="M730 1363 c-1 -45 -34 -103 -105 -183 -105 -118 -125 -180 -86 -267
20 -43 62 -73 101 -73 25 0 25 1 0 47 -34 64 -24 107 40 177 23 25 66 55 103
72 56 26 72 29 170 29 l109 0 -35 32 c-34 31 -117 63 -163 63 -17 0 -23 8 -28
33 -6 34 -33 65 -73 86 -31 16 -33 14 -33 -16z"/>
<path d="M520 1231 c-47 -15 -87 -40 -119 -76 -17 -20 -31 -40 -31 -45 0 -5
-27 -7 -62 -4 -55 5 -67 3 -90 -15 l-27 -22 43 -42 c33 -32 50 -61 72 -122 53
-145 84 -197 134 -222 65 -33 124 -31 161 6 16 16 29 34 29 39 0 5 -20 8 -44
8 -57 -1 -93 24 -126 89 -50 101 -26 249 60 363 22 29 36 52 32 51 -4 0 -18
-4 -32 -8z"/>
<path d="M861 1083 c-33 -6 -107 -84 -114 -119 -3 -16 1 -45 10 -64 l15 -35
19 37 c73 141 321 59 413 -136 13 -28 27 -60 31 -71 l7 -20 8 20 c15 35 11
128 -7 178 l-17 48 29 23 c25 20 29 31 33 85 l4 62 -33 -20 c-43 -26 -86 -26
-217 -1 -100 20 -133 22 -181 13z"/>
<path d="M899 845 c-14 -7 -30 -24 -36 -37 -10 -22 -9 -23 33 -23 90 0 144
-78 144 -210 0 -68 -4 -89 -30 -144 -17 -35 -44 -81 -61 -102 -29 -37 -29 -39
-9 -39 36 0 96 37 139 86 32 36 44 45 53 36 19 -19 87 -14 125 9 l34 21 -29
18 c-41 25 -64 68 -108 195 -27 76 -48 121 -72 147 -49 54 -128 73 -183 43z"/>
<path d="M224 784 c-9 -46 1 -113 23 -159 17 -35 17 -37 0 -46 -26 -15 -47
-63 -47 -109 0 -22 2 -40 5 -40 4 0 20 7 37 16 35 18 114 16 253 -6 105 -17
146 -9 195 40 45 45 57 78 44 128 -12 46 -25 49 -44 10 -35 -75 -138 -91 -245
-39 -74 37 -132 97 -175 180 -16 34 -32 61 -35 61 -2 0 -7 -16 -11 -36z"/>
<path d="M829 655 c31 -40 35 -78 13 -127 -50 -114 -214 -186 -364 -159 -34 6
-63 9 -65 7 -7 -7 51 -57 87 -75 19 -10 56 -21 83 -25 43 -7 47 -9 47 -35 0
-34 31 -76 71 -96 29 -16 29 -16 29 15 0 45 22 82 105 175 98 110 115 139 115
198 0 88 -43 147 -108 147 l-33 0 20 -25z"/>
</g>
</svg>
