<?xml version="1.0" standalone="no"?>
<!DOCTYPE svg PUBLIC "-//W3C//DTD SVG 20010904//EN"
 "http://www.w3.org/TR/2001/REC-SVG-20010904/DTD/svg10.dtd">
<svg version="1.0" xmlns="http://www.w3.org/2000/svg"
 width="752.000000pt" height="332.000000pt" viewBox="0 0 752.000000 332.000000"
 preserveAspectRatio="xMidYMid meet">

<g transform="translate(0.000000,332.000000) scale(0.100000,-0.100000)"
fill="#000000" stroke="none">
<path d="M2253 2226 c-1 -46 -22 -81 -102 -177 -89 -105 -105 -136 -99 -205 6
-67 43 -120 93 -130 50 -9 57 1 30 43 -30 43 -31 72 -6 122 26 50 82 98 150
129 44 20 72 26 136 26 44 1 93 -3 108 -7 25 -7 27 -6 18 11 -18 33 -88 73
-149 85 -57 11 -61 13 -66 43 -6 31 -34 62 -73 83 -33 17 -39 14 -40 -23z"/>
<path d="M3077 2142 l-37 -38 0 -185 0 -185 38 -37 38 -37 145 0 145 0 37 38
c29 30 37 46 37 75 l0 37 -48 0 c-36 0 -54 -5 -67 -20 -16 -17 -31 -20 -107
-20 l-88 0 0 150 0 150 88 0 c76 0 91 -3 107 -20 13 -15 31 -20 67 -20 l48 0
0 38 c0 31 -7 45 -38 75 l-38 37 -145 0 -145 0 -37 -38z"/>
<path d="M3600 1953 l0 -227 36 -33 37 -33 168 0 169 0 0 55 0 55 -140 0 -140
0 0 205 0 205 -65 0 -65 0 0 -227z"/>
<path d="M4137 2142 l-37 -38 0 -185 0 -185 38 -37 38 -37 155 0 155 0 37 38
37 38 0 185 0 185 -38 37 -38 37 -155 0 -155 0 -37 -38z m293 -222 l0 -150
-100 0 -100 0 0 150 0 150 100 0 100 0 0 -150z"/>
<path d="M4670 1957 l0 -223 38 -37 38 -37 155 0 155 0 37 38 37 38 0 222 0
222 -65 0 -65 0 0 -205 0 -205 -100 0 -100 0 0 205 0 205 -65 0 -65 0 0 -223z"/>
<path d="M5240 1920 l0 -260 193 0 193 0 37 38 37 38 0 185 0 185 -38 37 -38
37 -192 0 -192 0 0 -260z m330 0 l0 -150 -100 0 -100 0 0 150 0 150 100 0 100
0 0 -150z"/>
<path d="M2035 2097 c-28 -7 -57 -28 -97 -68 -53 -54 -59 -58 -84 -49 -32 13
-94 -2 -117 -28 -15 -16 -14 -20 20 -46 36 -29 59 -72 108 -205 38 -100 80
-146 150 -162 66 -15 108 -1 136 45 26 42 24 46 -14 34 -47 -15 -98 9 -134 63
-26 40 -28 50 -28 143 0 94 3 105 32 162 17 33 39 66 48 74 19 16 39 50 28 49
-4 -1 -26 -6 -48 -12z"/>
<path d="M2365 1944 c-85 -44 -121 -130 -77 -184 l18 -23 14 33 c39 95 193 92
309 -6 45 -37 107 -134 115 -179 10 -50 23 -43 37 20 11 49 10 61 -10 120
l-21 66 25 22 c27 23 43 73 37 119 l-3 27 -37 -19 c-46 -25 -73 -25 -191 0
-113 24 -176 25 -216 4z"/>
<path d="M2434 1731 c-20 -9 -64 -57 -64 -70 0 -3 22 -6 49 -6 39 0 55 -5 77
-25 89 -83 85 -266 -9 -390 -66 -88 -64 -81 -26 -74 51 10 116 51 147 92 26
36 28 37 62 26 37 -12 76 -5 117 22 l25 16 -35 23 c-37 26 -62 71 -97 180 -32
98 -68 162 -105 185 -38 23 -111 34 -141 21z"/>
<path d="M1759 1684 c-14 -38 -6 -129 17 -177 18 -38 18 -39 -3 -55 -30 -24
-43 -55 -43 -100 0 -50 6 -54 43 -31 39 23 97 24 208 3 111 -21 177 -15 223
20 64 48 85 125 49 176 l-17 24 -18 -43 c-23 -54 -69 -76 -149 -68 -109 10
-206 87 -265 211 l-33 69 -12 -29z"/>
<path d="M2349 1531 c48 -67 33 -131 -46 -201 -63 -55 -135 -80 -233 -80 -43
0 -91 5 -106 10 -37 15 -39 8 -8 -30 30 -35 87 -64 151 -74 37 -7 42 -11 47
-41 7 -37 53 -89 85 -98 17 -4 21 0 21 19 0 43 26 89 91 163 107 121 129 157
129 207 0 88 -50 154 -117 154 l-34 0 20 -29z"/>
<path d="M3040 1495 l0 -45 65 0 65 0 0 -180 0 -180 60 0 60 0 0 180 0 180 65
0 65 0 0 45 0 45 -190 0 -190 0 0 -45z"/>
<path d="M3522 1507 l-32 -33 0 -192 0 -192 55 0 55 0 0 65 0 65 85 0 85 0 0
-65 0 -65 55 0 55 0 0 193 0 193 -33 32 -33 32 -130 0 -130 0 -32 -33z m246
-124 l-3 -68 -80 0 -80 0 -3 68 -3 67 86 0 86 0 -3 -67z"/>
<path d="M3950 1495 l0 -45 65 0 65 0 0 -180 0 -180 60 0 60 0 0 180 0 180 65
0 65 0 0 45 0 45 -190 0 -190 0 0 -45z"/>
<path d="M4360 1495 l0 -45 70 0 70 0 0 -180 0 -180 55 0 55 0 2 178 3 177 68
3 67 3 0 44 0 45 -195 0 -195 0 0 -45z"/>
<path d="M4842 1507 l-32 -33 0 -155 0 -155 38 -37 38 -37 130 0 130 0 32 33
32 33 0 160 0 160 -33 32 -33 32 -135 0 -135 0 -32 -33z m253 -187 l0 -125
-82 -3 -83 -3 0 131 0 131 83 -3 82 -3 0 -125z"/>
<path d="M5342 1507 l-32 -33 0 -160 0 -160 33 -32 33 -32 130 0 130 0 32 33
32 33 0 160 0 160 -33 32 -33 32 -130 0 -130 0 -32 -33z m248 -187 l0 -130
-85 0 -85 0 0 130 0 130 85 0 85 0 0 -130z"/>
</g>
</svg>
